<svg width="20" height="20" viewBox="0 0 20 20" xmlns="http://www.w3.org/2000/svg">
<path d="M19.6821 9.91142C19.6821 15.1581 15.4288 19.4114 10.1821 19.4114C4.93536 19.4114 0.682068 15.1581 0.682068 9.91142C0.682068 4.66472 4.93536 0.411423 10.1821 0.411423C15.4288 0.411423 19.6821 4.66472 19.6821 9.91142Z" fill="#7DB550"/>
<path d="M6.31285 12.6714H7.71285V7.83142L7.81285 7.24142L7.41285 7.71142L6.31285 8.50142L5.93285 7.99142L8.13285 6.29142H8.49285V12.6714H9.86285V13.4114H6.31285V12.6714ZM14.1421 8.00142C14.1421 8.35476 14.0754 8.71809 13.9421 9.09142C13.8154 9.45809 13.6454 9.82809 13.4321 10.2014C13.2254 10.5748 12.9921 10.9414 12.7321 11.3014C12.4721 11.6548 12.2121 11.9914 11.9521 12.3114L11.4621 12.7414V12.7814L12.1021 12.6714H14.2821V13.4114H10.3021V13.1214C10.4487 12.9681 10.6254 12.7781 10.8321 12.5514C11.0387 12.3248 11.2521 12.0748 11.4721 11.8014C11.6987 11.5214 11.9187 11.2281 12.1321 10.9214C12.3521 10.6081 12.5487 10.2914 12.7221 9.97142C12.9021 9.65142 13.0454 9.33476 13.1521 9.02142C13.2587 8.70809 13.3121 8.41142 13.3121 8.13142C13.3121 7.80476 13.2187 7.53476 13.0321 7.32142C12.8454 7.10142 12.5621 6.99142 12.1821 6.99142C11.9287 6.99142 11.6821 7.04476 11.4421 7.15142C11.2021 7.25142 10.9954 7.36809 10.8221 7.50142L10.4921 6.93142C10.7254 6.73142 11.0021 6.57476 11.3221 6.46142C11.6421 6.34809 11.9854 6.29142 12.3521 6.29142C12.6387 6.29142 12.8921 6.33476 13.1121 6.42142C13.3321 6.50142 13.5187 6.61809 13.6721 6.77142C13.8254 6.92476 13.9421 7.10809 14.0221 7.32142C14.1021 7.52809 14.1421 7.75476 14.1421 8.00142Z" fill="white"/>
</svg>
